<svg width="200" height="200" viewBox="0 0 200 200" fill="none" xmlns="http://www.w3.org/2000/svg">
<rect width="200" height="200" fill="#111111"/>
<path d="M60.864 131L44.76 87H53.736L67.904 125.456L74.064 108.912L66.056 87.088H75.032L90.784 129.68C96.328 118.504 89.112 103.808 88.232 95.712C87.704 90.08 89.64 85.768 95.624 85.768C101.872 85.768 106.624 90.784 106.624 99.584C106.624 112.608 96.24 123.344 91.136 131.088H82.16L74.68 110.584L69.84 123.608C69.048 125.808 68.872 128.448 69.84 131H60.864ZM93.424 94.128C84.448 94.128 97.912 111.024 92.544 127.568C96.24 122.376 101.344 115.512 101.432 107.416C101.52 102.664 99.672 94.128 93.424 94.128Z" fill="white"/>
<path d="M114.28 131V69.4H122.904V95.008C125.984 89.728 130.472 86.032 137.424 86.032C147.808 86.032 155.2 94.48 155.2 106.448C155.2 120 145.784 132.144 131.176 132.144C126.688 132.144 121.144 131 115.952 131H114.28ZM122.904 101.784V130.56C133.464 131.352 144.112 128.624 145.96 112.256C147.632 97.56 140.24 88.76 133.024 88.76C126.248 88.76 122.904 95.712 122.904 101.784Z" fill="white"/>
</svg>
